<svg id="Calque_1" data-name="Calque 1" xmlns="http://www.w3.org/2000/svg" viewBox="0 0 50.89 100.9">
  <path d="M220,96.76V95.64h-.32a3.46,3.46,0,0,1-.79-.11,3.79,3.79,0,0,0-1-.12h-.27V51.17l2.57-2.59h0V47h-2.57V41H205V37.82h0v-3h0c-.06-3.93-2.27-8.92-6-10.66V22.5H196.4V15h-.31V22.5h-2.63v1.68c-3.68,1.74-5.9,6.73-6,10.66h0v3h0V41h-11.9V30.72l-.12,0a5.33,5.33,0,0,1-1.31-.58,4.17,4.17,0,0,0-1.54-.61V22h-.31V29.5a4.17,4.17,0,0,0-1.54.61,4.72,4.72,0,0,1-1.31.58l-.12,0,0,51.4v.06l0,0c.22.27,2.18,2.6,3.11,2.6.48,0,1.3-.61,2.43-1.8V95.4h-.27a3.79,3.79,0,0,0-1,.12,3.38,3.38,0,0,1-.79.11h-.32v1.12c1,0,2.41,2.51,2.4,5h0v14h0v.16h42.72v-.16h0v-14c0-2.46,1.4-4.93,2.43-5ZM205,51V48.59h14.75L217.39,51ZM169.65,40.21a12.26,12.26,0,0,0,1.21-.28,9.39,9.39,0,0,1,1.45-.3V52.31a9,9,0,0,0-1.53.31c-.39.1-.78.2-1.14.27V40.21Zm26.6,1.07h8.43v1.19H187.82V41.28Zm19.82,16.83v3.71h-5.38v-4a2.69,2.69,0,1,1,5.38,0v.32Zm0,11.41v3.92h-5.38V69.18a2.69,2.69,0,0,1,5.38,0v.33ZM187.51,51.27v2H176.43v-2Zm-11.13-7.82h3.5V47h-3.5V43.45Zm3.81,0h3.5V47h-3.5V43.45Zm3.81,0h3.5V47H184V43.45Zm20.38,46V87.75h0v-2h11.68v3.75Zm-8.13,0h-7.82V86.26c0-.18,0-.35,0-.53h15.6c0,.18,0,.35,0,.53v3.21h-7.84Zm-19.83,0V85.73H188.1v2h0v1.73Zm28.26-31.37v6.35h-5.39V55.61A2.86,2.86,0,0,1,202,52.72a2.71,2.71,0,0,1,2.71,2.7v2.69ZM193.52,56h0v-.73a3.1,3.1,0,0,1,.57-2.17,2.8,2.8,0,0,1,2-.46h.28a2.77,2.77,0,0,1,2,.46,3.05,3.05,0,0,1,.58,2.17V56h0v8.51h-5.46V56Zm-11.4,2.16h0v-.33a2.69,2.69,0,1,1,5.38,0v4h-5.39V58.11Zm5.7-2.33v-.36a2.69,2.69,0,0,1,2.7-2.69,2.86,2.86,0,0,1,2.68,2.89v8.85h-5.39V55.78ZM205,58.11v-.33a2.69,2.69,0,1,1,5.38,0v.33h0v3.71H205V58.11ZM196,66h.89a2.21,2.21,0,0,1,1.56.48,2.76,2.76,0,0,1,.57,2v.73h0v7.11h-5.46V69.2h0v-.73a2.84,2.84,0,0,1,.57-2,2.21,2.21,0,0,1,1.56-.48ZM182.12,77.81h6v7.62h-6V77.81Zm14.13.61a7.87,7.87,0,0,1,7.77,7H188.48a7.87,7.87,0,0,1,7.77-7Zm8.14-.61h6v7.62h-6V77.81Zm0-.31H187.83v-.88h16.86v.88Zm.29-8.84V76.3H199.3V68.85A2.86,2.86,0,0,1,202,66a2.72,2.72,0,0,1,2.7,2.7Zm-11.47.19V76.3h-5.39V68.65a2.7,2.7,0,0,1,2.7-2.7,2.91,2.91,0,0,1,2.68,2.9Zm-11.09.67h0v-.33a2.69,2.69,0,1,1,5.38,0h0v4.24h-5.39V69.52Zm5.39,8H176.43V73.75h11.08V77.5Zm-5.7.31v7.62h-5.39V77.81Zm28.88,7.61V77.8h5.38v7.62ZM205,77.5V73.75h11.08V77.5Zm0-4.07V69.19h0a2.69,2.69,0,1,1,5.38,0v.33h0v3.92Zm-8.15-7.77h-9v-.88h16.86v.88Zm-9-20h16.86v.83H187.82v-.83Zm0-2.83H190v2.51h-2.17V42.78Zm16.86,2.52h-2.17V42.79h2.17V45.3Zm-2.48,0h-2.15V42.79h2.15V45.3Zm-2.46,0h-2.15V42.79h2.15V45.3Zm-2.47,0h-2V42.79h2V45.3Zm-2.36,0h-2.15V42.79h2.15V45.3Zm-2.46,0H190.3V42.79h2.15V45.3Zm-4.63,1.44h16.86V51H187.81V46.74Zm-11.4,11a2.69,2.69,0,1,1,5.38,0v4.06h-5.39v-4Zm11.09,4.35V66H176.43V62.13Zm-11.09,7.05a2.69,2.69,0,0,1,5.38,0v4.27h-5.39V69.18ZM205,66V62.12h11.08V66Zm0-12.73v-2h11.08v2Zm0-9.79h3.5V47H205V43.45Zm3.81,0h3.5V47h-3.5V43.45Zm3.82,0h3.5V47h-3.5V43.45Zm-37.43,0h.88V47h-.88V43.45Zm12.32,3.89v.93H172.63v-.93ZM172.62,61.51a8.74,8.74,0,0,1,1.46.31l.8.2v11.6l-.72-.18a8.14,8.14,0,0,0-1.55-.31V61.51Zm1.54,0a8.06,8.06,0,0,0-1.54-.31v-8.6a8.74,8.74,0,0,1,1.46.31l.8.2v8.59l-.72-.19Zm0-8.91a8.91,8.91,0,0,0-1.54-.31V48.89l2.26,2.28v1.62l-.72-.18ZM172.3,73.13a8.73,8.73,0,0,0-1.52.31c-.39.1-.79.21-1.16.27V62.11a12.6,12.6,0,0,0,1.23-.28,9.39,9.39,0,0,1,1.45-.3v11.6Zm-2.67.89a12,12,0,0,0,1.23-.28,9.53,9.53,0,0,1,1.44-.3V79.9a8.73,8.73,0,0,0-1.52.31c-.39.1-.8.21-1.16.27V74Zm3-.59a8.84,8.84,0,0,1,1.47.31l.8.2v6.44c-.24,0-.48-.12-.72-.18a8.14,8.14,0,0,0-1.55-.31V73.43Zm-3-20.24a12.43,12.43,0,0,0,1.22-.28,9.39,9.39,0,0,1,1.45-.3v8.6a8.73,8.73,0,0,0-1.52.31c-.39.1-.79.2-1.15.27v-8.6Zm0,27.59c.39-.06.82-.17,1.24-.28a9.53,9.53,0,0,1,1.44-.3v1.18a8.73,8.73,0,0,0-1.52.31c-.4.1-.8.21-1.16.27V80.78Zm3-.59a8.84,8.84,0,0,1,1.47.31l.8.2v1.17l-.72-.18a8.14,8.14,0,0,0-1.55-.31V80.19ZM175.1,51l-2.35-2.37H187.5V51Zm1.32,39.88h5.39v4.62l-.35.08a3.4,3.4,0,0,1-1,.11,3.9,3.9,0,0,1-.95-.11,4.4,4.4,0,0,0-2,0,3.4,3.4,0,0,1-1,.11h-.15V90.84Zm5.7,0h6v4.8a3.43,3.43,0,0,1-.69-.11,4.39,4.39,0,0,0-2,0,3.4,3.4,0,0,1-.95.11,4,4,0,0,1-1-.11,3.79,3.79,0,0,0-1-.12h-.35V90.84Zm6.31,4.8V90.83h4.81v4.69a3.34,3.34,0,0,1-.93.11,4,4,0,0,1-.95-.11,4.4,4.4,0,0,0-2,0,2.75,2.75,0,0,1-.89.12Zm5.12-4.8H199v4.63a4.15,4.15,0,0,0-.73-.06,3.79,3.79,0,0,0-1,.12,3.51,3.51,0,0,1-.95.11,4,4,0,0,1-.95-.11,3.79,3.79,0,0,0-1-.12,4.25,4.25,0,0,0-.73.06V90.84Zm10.52,4.8a3.63,3.63,0,0,1-.9-.11,4.39,4.39,0,0,0-2,0,3.4,3.4,0,0,1-.95.11,3.34,3.34,0,0,1-.93-.11V90.84h4.81v4.8Zm.31-4.8h6v4.58H210a3.79,3.79,0,0,0-1,.12,3.4,3.4,0,0,1-.95.11,3.9,3.9,0,0,1-1-.11,4.39,4.39,0,0,0-2,0,3.31,3.31,0,0,1-.69.11v-4.8Zm6.31,0h5.38v4.8h-.15a4,4,0,0,1-.95-.11,4.4,4.4,0,0,0-2,0,3.4,3.4,0,0,1-1,.11,4,4,0,0,1-.95-.11l-.35-.08V90.84Zm9.18-42.57H205v-.93h14.88v.93ZM216.43,47V43.44h.88V47Zm.88-5.75v1.85H205V41.28ZM196.25,30.64a7.45,7.45,0,0,1,1.06.08v1.5h-2.12v-1.5a6.23,6.23,0,0,1,1.06-.08Zm1.37,4.12V32.53h2.12v2.23Zm-.31,0h-2.12V32.53h2.12v2.23Zm-2.43,0h-2.12V32.53h2.12v2.23Zm0,.31V37.3h-2.12V35.07Zm.31,0h2.12V37.3h-2.12V35.07Zm2.43,0h2.12V37.3h-2.12V35.07Zm2.43,2.23V35.07h2.48a6.7,6.7,0,0,1,.38,2.21v0Zm0-2.54V32.53h.85a6.53,6.53,0,0,1,1.51,2.23Zm0-2.54v-.39a4.91,4.91,0,0,1,.51.39Zm-.31,0h-2.12V30.78a6.77,6.77,0,0,1,2.12.84v.6Zm-4.86,0h-2.12v-.6a6.53,6.53,0,0,1,2.12-.84v1.44Zm-2.43,0h-.51a4.91,4.91,0,0,1,.51-.39v.39Zm-.85.31h.85v2.23h-2.37a6.5,6.5,0,0,1,1.52-2.23ZM190,35.07h2.48V37.3h-2.86v0a6.45,6.45,0,0,1,.38-2.21Zm-.4,3.5v-1h2.87v2.22h-2.88V38.57Zm3.19-1h2.12v2.22h-2.12V37.61Zm2.43,0h2.12v2.22h-2.12V37.61Zm2.43,0h2.12v2.22h-2.12V37.61Zm2.43,0h2.87v2.22h-2.88V37.61Zm3.17-.34a7,7,0,0,0-7-7h0a7,7,0,0,0-7,7v2.56h-1.45V37.64c0-.12,0-.24,0-.36h0a1.93,1.93,0,0,1,0-.24,11.3,11.3,0,0,1,.22-1.69,8.42,8.42,0,0,1,16.38,0,11.3,11.3,0,0,1,.22,1.69c0,.08,0,.16,0,.24h0c0,.16,0,.31,0,.47v2.08h-1.45V37.27Zm-7-8.69h0a8.74,8.74,0,0,0-7.07,3.6,15,15,0,0,1,7.06-6.36,15,15,0,0,1,7.07,6.36,8.71,8.71,0,0,0-7.06-3.6Zm-2.47-5.77h4.94v1.31h-4.94V22.81Zm-.12,1.62h5.18c3.65,1.69,5.83,6.67,5.84,10.54-1.53-6.72-8.16-9.39-8.37-9.47a.19.19,0,0,0-.13,0c-.32.13-6.85,2.8-8.36,9.47,0-3.87,2.19-8.85,5.84-10.54Zm-5.84,15.71h16.86V41H187.82v-.84Zm-.31,3H175.2V41.29h12.31v1.85ZM174.88,41V47h-2.26V39.62a8.74,8.74,0,0,1,1.46.31c.41.11.83.21,1.21.28V41ZM174,30.39a6.05,6.05,0,0,0,1.27.59V39.9c-.35-.06-.75-.16-1.13-.26a8.91,8.91,0,0,0-1.54-.31v-9.5a3.92,3.92,0,0,1,1.39.56Zm-3.07,0a4.18,4.18,0,0,1,1.38-.57v9.5a8.64,8.64,0,0,0-1.53.31c-.38.1-.77.2-1.13.26V31a5.73,5.73,0,0,0,1.27-.58Zm-1.18,51.85c.35-.07.73-.16,1.1-.26a9.29,9.29,0,0,1,1.44-.3V84.5a9.32,9.32,0,0,1-2.54-2.26Zm5,.48a6.8,6.8,0,0,1-2.14,1.78V81.68a8.84,8.84,0,0,1,1.47.31l.8.2v.39l-.13.14Zm.44-31.45h.92v2h0V66h0V95.62a4.16,4.16,0,0,1-.48-.09,3.76,3.76,0,0,0-.44-.09V51.27Zm41.13,63.44h1v.89h-1v-.89Zm-.32.89H205v-.89h11v.89Zm-40.81-.89h1v.89h-1v-.89Zm1.31,0h11v.89h-11v-.89Zm10.2-16.26a7.77,7.77,0,0,1,.51,1.31H176.43l-.64-1.31Zm.79,16h-11v-8.91h11v8.91Zm0-9.23h-11v-1.08h11v1.08Zm0-2.33v.94h-11v-.94Zm4.39,10.5c-.12.89-1.59,1.55-2.82,1.93V102.83h2.82v10.51Zm11.56,1.94c-1.23-.38-2.7-1-2.82-1.93v-10.5h2.82v12.43Zm-3.14-2.2h-8.1V102.84h8.1v10.24Zm3.23-13.32H189l-.64-1.31h15.84l-.63,1.31Zm-11.65,14.31v1.52h-2.81a6,6,0,0,0,2.81-1.52Zm8.74,0a5.92,5.92,0,0,0,2.81,1.52h-2.81v-1.52Zm4.38-10h11v1.08H205v-1.08Zm11,10.31H205v-8.91h11v8.91Zm0-10.62H205v-.94h11v.94Zm-10.7-4a8.1,8.1,0,0,1,.5-1.31h10.91l-.64,1.31Zm12.25-3-.68,1.39H206c.47-.82,1-1.37,1.51-1.39ZM203.77,100l1.58-3.22h1.36a6.85,6.85,0,0,0-2,5V115.6c-.24,0-.57-.12-.93-.22V100Zm.55-1.84H188.18l-.68-1.39H205l-.68,1.39Zm-15.59,17.23c-.36.1-.68.17-.93.22V101.75a6.85,6.85,0,0,0-2-5h1.36l1.58,3.23v15.39ZM185,96.75c.48,0,1,.57,1.51,1.39h-10.9L175,96.75Zm7.18,16.64h8.1v2.21h-8.1v-2.21Zm-16,1h-1V101.71h0c0-2-.92-4.17-1.95-4.95h1.37l1.57,3.21V114.4Zm41.13-12.69h0V114.4h-1V100h0l1.57-3.2h1.37c-1,.78-1.94,3-1.95,5Zm1.52-5.88a3.73,3.73,0,0,0,.86.12v.49H172.8V96a3.73,3.73,0,0,0,.86-.12,3.32,3.32,0,0,1,1-.12,3.37,3.37,0,0,1,.95.12,4.39,4.39,0,0,0,2,0,3.32,3.32,0,0,1,1-.12,3.43,3.43,0,0,1,.95.12,4.39,4.39,0,0,0,2,0,3.32,3.32,0,0,1,1-.12,3.43,3.43,0,0,1,.95.12,4.39,4.39,0,0,0,2,0,3.32,3.32,0,0,1,1-.12,3.43,3.43,0,0,1,.95.12,4.39,4.39,0,0,0,2,0,3.32,3.32,0,0,1,1-.12,3.43,3.43,0,0,1,.95.12,4.39,4.39,0,0,0,2,0,3.32,3.32,0,0,1,.95-.12,3.43,3.43,0,0,1,.95.12,4.39,4.39,0,0,0,2,0,3.82,3.82,0,0,1,1.9,0,4.39,4.39,0,0,0,2,0,3.32,3.32,0,0,1,.95-.12,3.37,3.37,0,0,1,.95.12,4.39,4.39,0,0,0,2,0,3.32,3.32,0,0,1,.95-.12,3.37,3.37,0,0,1,1,.12,4.4,4.4,0,0,0,2,0,3.32,3.32,0,0,1,.95-.12,3.37,3.37,0,0,1,1,.12,4.4,4.4,0,0,0,2,0,3.32,3.32,0,0,1,.95-.12,3.43,3.43,0,0,1,1,.12,4.4,4.4,0,0,0,2,0,3.32,3.32,0,0,1,.95-.12,2.77,2.77,0,0,1,.88.12Zm-2-.3a2.94,2.94,0,0,1-.48.09V66h0V53.25h0v-2h.92V95.44a3.38,3.38,0,0,0-.44.09Z" transform="translate(-169.29 -14.99)"/>
</svg>
